<svg xmlns="http://www.w3.org/2000/svg" viewBox="0 0 80 96" role="img" aria-label="Siraja Logo">
  <!-- ═══ SUSPENSION RING ═══ -->
  <circle cx="40" cy="7" r="5" fill="none" stroke="#C9A84C" stroke-width="2.5"/>
  <line x1="40" y1="12" x2="40" y2="19" stroke="#C9A84C" stroke-width="2" stroke-linecap="round"/>

  <!-- ═══ TOP CAP (pointed arch) ═══ -->
  <path d="M27 19 Q40 12.5 53 19 L51 28 L29 28 Z" fill="#C9A84C"/>
  <!-- collar under top cap -->
  <rect x="29" y="27.5" width="22" height="4" rx="2" fill="#A87B28"/>

  <!-- ═══ LANTERN BODY (octagon) ═══ -->
  <path d="M33 31.5 L47 31.5 L53.5 43 L53.5 63 L47 74.5 L33 74.5 L26.5 63 L26.5 43 Z"
        fill="rgba(201,168,76,0.07)" stroke="#C9A84C" stroke-width="2.2" stroke-linejoin="round"/>

  <!-- structural pane lines -->
  <line x1="40" y1="31.5" x2="40"   y2="74.5" stroke="#C9A84C" stroke-width="1"   opacity="0.30"/>
  <line x1="26.5" y1="53"  x2="53.5" y2="53"   stroke="#C9A84C" stroke-width="1"   opacity="0.30"/>
  <line x1="33"   y1="31.5" x2="26.5" y2="43"  stroke="#C9A84C" stroke-width="0.8" opacity="0.22"/>
  <line x1="47"   y1="31.5" x2="53.5" y2="43"  stroke="#C9A84C" stroke-width="0.8" opacity="0.22"/>
  <line x1="33"   y1="74.5" x2="26.5" y2="63"  stroke="#C9A84C" stroke-width="0.8" opacity="0.22"/>
  <line x1="47"   y1="74.5" x2="53.5" y2="63"  stroke="#C9A84C" stroke-width="0.8" opacity="0.22"/>

  <!-- ═══ WARM INNER GLOW ═══ -->
  <ellipse cx="40" cy="53" rx="13" ry="15" fill="#FCD34D" opacity="0.10"/>
  <ellipse cx="40" cy="53" rx="7"  ry="9"  fill="#FCD34D" opacity="0.18"/>
  <circle  cx="40" cy="53" r="3.5"         fill="#FCD34D" opacity="0.55"/>

  <!-- ═══ BOTTOM COLLAR ═══ -->
  <rect x="29" y="74.5" width="22" height="4" rx="2" fill="#A87B28"/>

  <!-- ═══ BOTTOM FINIAL ═══ -->
  <path d="M36 78.5 L44 78.5 L42 84 L40 87.5 L38 84 Z" fill="#C9A84C"/>
  <circle cx="40" cy="91" r="3.5" fill="#C9A84C"/>

  <!-- ═══ SIDE DECORATIVE RINGS ═══ -->
  <circle cx="15.5" cy="53" r="4.5" fill="none" stroke="#C9A84C" stroke-width="1.5" opacity="0.60"/>
  <line   x1="20"   y1="53" x2="26.5" y2="53"   stroke="#C9A84C" stroke-width="1.5" opacity="0.60"/>
  <circle cx="64.5" cy="53" r="4.5" fill="none" stroke="#C9A84C" stroke-width="1.5" opacity="0.60"/>
  <line   x1="53.5" y1="53" x2="60"   y2="53"   stroke="#C9A84C" stroke-width="1.5" opacity="0.60"/>
</svg>
